<?xml version="1.0" encoding="UTF-8" standalone="no"?>
<!-- Created with Inkscape (http://www.inkscape.org/) -->

<svg
   width="150"
   height="150"
   viewBox="0 0 150 150"
   version="1.1"
   id="svg1"
   inkscape:version="1.3.2 (091e20e, 2023-11-25)"
   sodipodi:docname="diracx-logo-square.svg"
   xmlns:inkscape="http://www.inkscape.org/namespaces/inkscape"
   xmlns:sodipodi="http://sodipodi.sourceforge.net/DTD/sodipodi-0.dtd"
   xmlns="http://www.w3.org/2000/svg"
   xmlns:svg="http://www.w3.org/2000/svg">
  <sodipodi:namedview
     id="namedview1"
     pagecolor="#ffffff"
     bordercolor="#000000"
     borderopacity="0.25"
     inkscape:showpageshadow="2"
     inkscape:pageopacity="0.0"
     inkscape:pagecheckerboard="0"
     inkscape:deskcolor="#d1d1d1"
     inkscape:document-units="mm"
     inkscape:zoom="2.8871104"
     inkscape:cx="154.99927"
     inkscape:cy="18.877006"
     inkscape:window-width="1728"
     inkscape:window-height="1052"
     inkscape:window-x="0"
     inkscape:window-y="65"
     inkscape:window-maximized="0"
     inkscape:current-layer="layer1" />
  <defs
     id="defs1">
    <clipPath
       clipPathUnits="userSpaceOnUse"
       id="clipPath2">
      <path
         d="M 0,841.89 H 595.276 V 0 H 0 Z"
         transform="translate(-230.34171,-690.82181)"
         id="path2" />
    </clipPath>
    <clipPath
       clipPathUnits="userSpaceOnUse"
       id="clipPath4">
      <path
         d="M 0,841.89 H 595.276 V 0 H 0 Z"
         transform="translate(-243.84621,-683.07701)"
         id="path4" />
    </clipPath>
    <clipPath
       clipPathUnits="userSpaceOnUse"
       id="clipPath6">
      <path
         d="M 0,841.89 H 595.276 V 0 H 0 Z"
         transform="translate(-245.17941,-680.78672)"
         id="path6" />
    </clipPath>
    <clipPath
       clipPathUnits="userSpaceOnUse"
       id="clipPath8">
      <path
         d="M 0,841.89 H 595.276 V 0 H 0 Z"
         transform="translate(-242.38561,-661.02311)"
         id="path8" />
    </clipPath>
    <clipPath
       clipPathUnits="userSpaceOnUse"
       id="clipPath10">
      <path
         d="M 0,841.89 H 595.276 V 0 H 0 Z"
         transform="translate(-225.5752,-653.60951)"
         id="path10" />
    </clipPath>
    <clipPath
       clipPathUnits="userSpaceOnUse"
       id="clipPath12">
      <path
         d="M 0,841.89 H 595.276 V 0 H 0 Z"
         transform="translate(-210.92941,-664.91651)"
         id="path12" />
    </clipPath>
    <clipPath
       clipPathUnits="userSpaceOnUse"
       id="clipPath14">
      <path
         d="M 0,841.89 H 595.276 V 0 H 0 Z"
         transform="translate(-289.13871,-649.43291)"
         id="path14" />
    </clipPath>
    <clipPath
       clipPathUnits="userSpaceOnUse"
       id="clipPath16">
      <path
         d="M 0,841.89 H 595.276 V 0 H 0 Z"
         transform="translate(-295.91161,-649.43291)"
         id="path16" />
    </clipPath>
    <clipPath
       clipPathUnits="userSpaceOnUse"
       id="clipPath18">
      <path
         d="M 0,841.89 H 595.276 V 0 H 0 Z"
         transform="translate(-298.71081,-649.43291)"
         id="path18" />
    </clipPath>
    <clipPath
       clipPathUnits="userSpaceOnUse"
       id="clipPath20">
      <path
         d="M 0,841.89 H 595.276 V 0 H 0 Z"
         id="path20" />
    </clipPath>
    <clipPath
       clipPathUnits="userSpaceOnUse"
       id="clipPath22">
      <path
         d="M 0,841.89 H 595.276 V 0 H 0 Z"
         transform="translate(-313.55651,-649.43291)"
         id="path22" />
    </clipPath>
    <clipPath
       clipPathUnits="userSpaceOnUse"
       id="clipPath24">
      <path
         d="M 0,841.89 H 595.276 V 0 H 0 Z"
         transform="translate(-317.33811,-649.43291)"
         id="path24" />
    </clipPath>
    <clipPath
       clipPathUnits="userSpaceOnUse"
       id="clipPath26">
      <path
         d="M 0,841.89 H 595.276 V 0 H 0 Z"
         transform="translate(-321.08281,-649.43291)"
         id="path26" />
    </clipPath>
    <clipPath
       clipPathUnits="userSpaceOnUse"
       id="clipPath28">
      <path
         d="M 0,841.89 H 595.276 V 0 H 0 Z"
         transform="translate(-327.85591,-651.92932)"
         id="path28" />
    </clipPath>
    <clipPath
       clipPathUnits="userSpaceOnUse"
       id="clipPath30">
      <path
         d="M 0,841.89 H 595.276 V 0 H 0 Z"
         transform="translate(-334.88741,-649.43291)"
         id="path30" />
    </clipPath>
    <clipPath
       clipPathUnits="userSpaceOnUse"
       id="clipPath32">
      <path
         d="M 0,841.89 H 595.276 V 0 H 0 Z"
         transform="translate(-339.53311,-651.45671)"
         id="path32" />
    </clipPath>
    <clipPath
       clipPathUnits="userSpaceOnUse"
       id="clipPath34">
      <path
         d="M 0,841.89 H 595.276 V 0 H 0 Z"
         transform="translate(-345.67111,-651.92932)"
         id="path34" />
    </clipPath>
    <clipPath
       clipPathUnits="userSpaceOnUse"
       id="clipPath36">
      <path
         d="M 0,841.89 H 595.276 V 0 H 0 Z"
         transform="translate(-349.33441,-649.43291)"
         id="path36" />
    </clipPath>
    <clipPath
       clipPathUnits="userSpaceOnUse"
       id="clipPath38">
      <path
         d="M 0,841.89 H 595.276 V 0 H 0 Z"
         transform="translate(-259.4713,-663.87502)"
         id="path38" />
    </clipPath>
    <clipPath
       clipPathUnits="userSpaceOnUse"
       id="clipPath40">
      <path
         d="M 0,841.89 H 595.276 V 0 H 0 Z"
         id="path40" />
    </clipPath>
    <clipPath
       clipPathUnits="userSpaceOnUse"
       id="clipPath42">
      <path
         d="M 0,841.89 H 595.276 V 0 H 0 Z"
         transform="translate(-300.78511,-668.60152)"
         id="path42" />
    </clipPath>
    <clipPath
       clipPathUnits="userSpaceOnUse"
       id="clipPath44">
      <path
         d="M 0,841.89 H 595.276 V 0 H 0 Z"
         transform="translate(-332.68091,-659.85461)"
         id="path44" />
    </clipPath>
    <clipPath
       clipPathUnits="userSpaceOnUse"
       id="clipPath46">
      <path
         d="M 0,841.89 H 595.276 V 0 H 0 Z"
         transform="translate(-347.79571,-663.87401)"
         id="path46" />
    </clipPath>
    <clipPath
       clipPathUnits="userSpaceOnUse"
       id="clipPath48">
      <path
         d="M 0,841.89 H 595.276 V 0 H 0 Z"
         transform="translate(-362.66891,-684.94402)"
         id="path48" />
    </clipPath>
  </defs>
  <g
     inkscape:label="Layer 1"
     inkscape:groupmode="layer"
     id="layer1"
     transform="translate(286.41026,233.9322)">
    <path
       id="path1"
       d="m 0,0 -0.055,0.091 c -0.794,1.31 -2.5,1.729 -3.809,0.935 l -14.31,-8.671 c 0.387,0.204 0.828,0.321 1.296,0.32 h 0.106 c 1.531,-0.002 2.772,-1.245 2.769,-2.777 l -0.002,-1.627 13.07,7.92 C 0.375,-3.015 0.793,-1.309 0,0"
       style="fill:#4e5558;fill-opacity:1;fill-rule:nonzero;stroke:none"
       transform="matrix(3.6268594,0,0,-3.6268594,-202.68551,-226.25342)"
       clip-path="url(#clipPath2)"
       inkscape:export-filename="diracx-logos/full-logo.svg"
       inkscape:export-xdpi="96"
       inkscape:export-ydpi="96" />
    <path
       id="path3"
       d="m 0,0 -14.275,8.627 c 0.067,-0.05 0.481,-0.4 0.689,-0.748 l 0.081,-0.133 c 0.794,-1.309 0.376,-3.015 -0.934,-3.808 L -15.922,3.039 -2.93,-4.835 C -1.619,-5.628 0.086,-5.21 0.88,-3.9 l 0.054,0.091 C 1.729,-2.499 1.31,-0.794 0,0"
       style="fill:#00afca;fill-opacity:1;fill-rule:nonzero;stroke:none"
       transform="matrix(3.6268594,0,0,-3.6268594,-153.70656,-198.16405)"
       clip-path="url(#clipPath4)" />
    <path
       id="path5"
       d="m 0,0 c 0.016,-0.517 -0.111,-1.043 -0.399,-1.519 l -0.054,-0.09 c -0.794,-1.311 -2.499,-1.729 -3.81,-0.936 l -1.389,0.842 -0.02,-15.284 c -0.001,-1.532 1.238,-2.775 2.77,-2.777 h 0.106 c 1.532,-0.002 2.775,1.238 2.778,2.77 L 0.003,-0.067 C 0.003,-0.044 0,-0.022 0,0"
       style="fill:#77b52c;fill-opacity:1;fill-rule:nonzero;stroke:none"
       transform="matrix(3.6268594,0,0,-3.6268594,-148.87126,-189.85753)"
       clip-path="url(#clipPath6)" />
    <path
       id="path7"
       d="m 0,0 h -0.106 c -1.532,0.002 -2.772,1.245 -2.77,2.777 l 0.002,1.627 -13.069,-7.92 c -1.31,-0.794 -1.729,-2.5 -0.935,-3.809 l 0.055,-0.091 c 0.794,-1.31 2.499,-1.729 3.809,-0.935 L 1.291,0.317 C 0.905,0.114 0.466,-0.001 0,0"
       style="fill:#4e5558;fill-opacity:1;fill-rule:nonzero;stroke:none"
       transform="matrix(3.6268594,0,0,-3.6268594,-159.00398,-118.17772)"
       clip-path="url(#clipPath8)" />
    <path
       id="path9"
       d="M 0,0 -0.055,0.091 C -0.848,1.4 -0.43,3.106 0.88,3.9 l 1.49,0.903 -12.987,7.869 c -1.31,0.794 -3.016,0.376 -3.81,-0.935 l -0.054,-0.091 c -0.794,-1.31 -0.376,-3.015 0.934,-3.808 L 0.93,-0.935 C 0.943,-0.942 0.956,-0.948 0.969,-0.955 0.583,-0.73 0.248,-0.408 0,0"
       style="fill:#00afca;fill-opacity:1;fill-rule:nonzero;stroke:none"
       transform="matrix(3.6268594,0,0,-3.6268594,-219.97287,-91.289554)"
       clip-path="url(#clipPath10)" />
    <path
       id="path11"
       d="m 0,0 0.225,0.43 c 0.794,1.311 2.499,1.729 3.81,0.935 L 5.399,0.539 5.418,15.803 C 5.42,17.335 4.18,18.578 2.649,18.58 H 2.543 C 1.011,18.582 -0.233,17.342 -0.234,15.811 L -0.24,-0.991 C -0.212,-0.965 -0.273,-0.635 0,0"
       style="fill:#77b52c;fill-opacity:1;fill-rule:nonzero;stroke:none"
       transform="matrix(3.6268594,0,0,-3.6268594,-273.09121,-132.29848)"
       clip-path="url(#clipPath12)" />
    <path
       id="path47"
       d="m 0,0 -0.394,1.042 c -0.288,0.737 -0.445,1.135 -0.47,1.195 l -0.61,1.36 c -0.432,0.974 -0.848,1.461 -1.246,1.461 -0.601,0 -1.076,-0.563 -1.423,-1.69 -0.254,0.093 -0.381,0.229 -0.381,0.407 0,0.525 0.305,1.126 0.915,1.804 0.608,0.678 1.154,1.017 1.637,1.017 0.947,0 1.93,-1.364 2.944,-4.092 L 1.235,1.83 1.527,2.3 c 1.803,2.864 3.324,4.296 4.561,4.296 0.322,0 0.699,-0.093 1.131,-0.28 L 5.681,4.702 C 5.475,4.762 5.331,4.791 5.247,4.791 4.315,4.791 3.205,3.72 1.915,1.576 L 1.546,0.96 1.836,0.178 c 1.115,-3.076 2.034,-4.613 2.756,-4.613 0.665,0 1.172,0.474 1.521,1.423 0.237,-0.153 0.356,-0.309 0.356,-0.47 0,-0.424 -0.339,-0.932 -1.017,-1.525 -0.678,-0.593 -1.262,-0.89 -1.754,-0.89 -0.983,0 -1.987,1.385 -3.012,4.156 l -0.356,0.94 -0.368,-0.648 c -1.729,-2.965 -3.381,-4.448 -4.957,-4.448 -0.593,0 -1.097,0.146 -1.512,0.441 l 1.474,1.44 c 0.254,-0.254 0.551,-0.381 0.89,-0.381 0.957,0 2.033,0.968 3.228,2.906 l 0.661,1.069 z"
       style="fill:#404040;fill-opacity:1;fill-rule:nonzero;stroke:none"
       transform="matrix(3.6268594,0,0,-3.6268594,-212.70142,-157.66461)"
       clip-path="url(#clipPath48)" />
  </g>
</svg>
